{"glyphs":{"\u0000":{"ha":0,"x_min":0,"x_max":0,"o":""},"\r":{"ha":347,"x_min":0,"x_max":0,"o":""}," ":{"ha":292,"x_min":0,"x_max":0,"o":""},".":{"ha":843,"x_min":28,"x_max":815,"o":"m 465 360 q 480 369 474 360 q 490 393 486 379 q 497 420 494 407 q 499 440 499 433 q 495 462 499 449 q 481 475 492 475 q 469 464 475 475 q 458 438 463 453 q 450 409 453 424 q 447 388 447 394 q 451 370 447 381 q 465 360 454 360 m 485 197 q 467 194 478 197 l 479 147 q 496 153 490 150 l 501 160 q 502 164 501 163 q 503 168 503 165 q 499 187 503 176 q 485 197 496 197 m 721 194 q 711 217 721 207 l 693 217 q 687 210 690 214 q 683 203 683 206 l 683 193 q 694 169 683 176 l 703 168 q 714 173 707 169 q 721 183 721 176 l 721 194 m 246 811 q 240 828 246 819 q 224 836 233 836 q 213 825 213 836 q 220 804 213 813 q 231 786 228 796 q 246 811 246 794 m 558 635 q 576 644 569 635 q 583 665 583 654 q 572 679 583 679 q 553 663 560 679 q 544 638 547 647 q 551 636 547 638 q 558 635 556 635 m 650 432 q 665 440 658 435 q 672 457 672 446 q 667 473 672 464 q 653 482 663 482 q 643 476 646 482 q 640 464 640 471 q 649 431 640 446 l 650 432 m 735 608 q 732 615 735 613 l 729 615 q 710 606 717 615 q 704 585 704 596 q 717 571 704 571 q 731 588 726 571 q 735 608 735 604 m 147 350 q 158 356 154 350 q 169 363 163 363 q 174 357 174 363 q 175 349 175 351 q 153 314 175 325 q 113 303 132 303 q 75 315 88 303 q 58 346 63 328 q 54 386 54 364 q 51 426 54 408 q 48 433 51 432 q 40 434 44 433 q 33 438 36 435 q 31 450 31 440 q 36 459 31 457 q 47 463 42 461 q 63 472 58 464 q 72 488 68 479 q 81 502 75 496 q 99 508 86 508 q 113 498 110 508 q 115 479 115 488 q 125 472 115 471 q 140 474 135 474 q 151 457 151 474 q 147 448 151 450 q 135 445 142 446 q 125 443 129 444 q 121 435 121 442 q 122 417 121 431 q 124 388 122 403 q 132 362 126 374 q 147 350 138 350 m 161 163 q 153 144 158 150 q 133 139 147 139 q 125 140 131 139 q 117 143 119 142 l 114 147 l 114 156 l 115 157 q 133 151 126 151 l 139 151 l 144 156 l 144 165 l 140 167 l 136 171 l 131 172 q 119 179 126 178 l 115 185 l 115 193 q 121 208 115 203 l 139 214 q 146 211 142 213 q 153 211 150 210 l 156 210 l 156 197 l 154 197 l 144 201 l 135 201 l 129 194 q 135 186 131 189 q 146 181 140 183 q 156 175 151 179 q 161 163 160 171 m 268 149 l 250 153 l 236 97 l 235 96 l 229 97 q 224 97 226 97 q 222 100 221 97 l 236 157 l 218 160 l 218 169 l 222 172 q 233 169 225 171 q 250 166 242 168 q 265 162 258 164 q 272 157 272 160 l 268 149 m 351 471 q 341 410 351 446 q 312 341 331 374 q 267 285 293 308 q 211 261 242 261 q 185 269 196 261 q 174 293 174 278 q 183 319 174 308 q 207 329 192 329 q 228 325 218 329 q 249 321 238 321 q 262 323 254 321 q 269 332 269 325 q 256 339 265 339 q 226 355 238 342 q 209 385 215 368 q 199 422 203 403 q 190 453 194 440 q 187 461 190 456 q 181 472 183 467 q 172 488 176 479 q 185 501 172 499 q 206 503 199 503 l 232 503 q 256 496 254 503 q 258 472 258 489 q 263 451 258 467 q 272 420 267 436 q 283 392 278 404 q 293 381 289 381 q 301 390 300 381 q 303 404 303 399 q 297 442 303 424 q 290 478 290 460 q 301 499 290 493 q 324 506 311 506 q 346 496 340 506 q 351 471 351 486 m 376 143 q 369 140 374 142 q 361 139 364 139 q 341 144 353 139 q 329 160 329 149 l 329 171 q 332 192 329 182 q 336 214 335 203 l 336 215 q 340 217 336 217 l 343 215 l 347 215 l 350 211 l 343 171 l 343 163 l 346 157 l 356 151 l 363 151 l 371 158 q 375 182 374 169 q 379 207 376 194 l 383 210 l 394 206 q 390 173 392 189 q 376 143 388 157 m 518 165 q 502 142 518 151 q 475 133 486 133 l 469 133 q 459 164 463 146 q 450 197 456 182 l 454 203 q 471 207 463 206 q 488 210 479 208 l 501 206 q 518 165 518 190 m 611 183 l 599 179 l 599 181 l 575 244 l 585 250 l 589 250 l 611 183 m 736 194 q 728 167 736 179 q 703 156 721 156 q 690 158 696 156 q 678 164 685 161 q 668 192 668 175 q 707 229 668 229 q 729 219 722 229 q 736 194 736 208 m 115 579 q 123 558 115 561 q 131 549 131 556 q 117 537 131 539 q 97 535 104 535 l 65 535 q 44 536 58 535 q 31 549 31 538 q 40 560 35 560 q 46 579 46 561 l 46 733 q 40 752 46 749 q 28 767 35 756 q 36 778 28 774 q 55 784 44 782 q 76 787 65 786 q 90 788 86 788 q 111 783 106 788 q 118 772 117 779 q 117 755 119 764 q 115 736 115 746 l 115 631 l 118 625 q 140 648 139 639 q 140 678 140 657 q 153 696 140 692 q 178 700 167 700 q 202 697 189 700 q 215 678 215 693 q 208 660 215 668 q 193 645 201 651 q 178 635 185 639 q 171 629 171 631 q 174 626 171 626 q 175 625 174 625 q 188 611 179 622 q 207 587 197 600 q 224 563 217 574 q 231 549 231 551 q 219 538 231 540 q 201 535 208 535 l 174 535 q 154 543 163 535 q 140 563 146 551 q 128 586 133 574 q 118 608 122 599 l 115 608 l 115 579 m 443 575 q 432 565 443 569 q 406 557 421 560 q 378 553 392 554 q 360 551 364 551 q 350 552 357 551 q 343 558 343 553 q 348 571 343 567 q 353 582 353 575 q 347 622 353 601 q 339 661 342 642 q 329 679 336 678 q 314 690 322 681 l 314 692 q 323 704 314 699 q 344 714 332 710 q 369 720 357 718 q 386 722 381 722 q 403 710 401 722 q 406 686 406 697 q 408 683 406 683 l 408 686 q 419 720 411 706 q 451 735 428 735 q 474 721 467 735 q 481 694 481 707 q 470 673 481 679 q 447 663 460 667 q 423 657 433 660 q 413 646 413 654 q 415 626 413 638 q 421 606 418 615 q 426 591 424 594 q 430 587 428 588 q 435 585 432 586 q 443 576 438 583 l 443 575 m 486 333 q 462 337 475 333 q 440 351 449 340 l 438 353 q 433 347 436 353 q 428 333 431 340 q 424 317 426 325 q 422 304 422 308 q 423 300 422 301 q 424 296 424 299 q 428 285 428 292 q 415 275 428 275 q 397 278 411 275 q 369 286 383 281 q 343 298 354 292 q 332 310 332 304 q 341 318 332 317 q 356 338 350 319 q 367 370 360 349 q 381 415 374 392 q 394 459 389 438 q 400 490 400 481 q 397 502 400 497 q 394 514 394 507 q 401 522 394 521 q 411 524 407 524 q 427 522 415 524 q 450 518 439 521 q 470 510 461 515 q 479 499 479 506 q 479 496 479 497 q 481 493 481 493 q 492 496 486 493 q 506 499 499 499 q 551 479 535 499 q 568 432 568 460 q 547 365 568 396 q 486 333 526 333 m 776 482 q 801 474 790 482 q 813 451 813 467 q 802 428 813 436 q 776 421 792 421 q 751 428 761 421 q 742 451 742 436 q 752 474 742 467 q 776 482 763 482 m 243 772 q 259 761 250 765 q 279 757 268 757 q 306 766 293 757 q 321 790 318 775 l 325 799 q 329 800 328 800 q 339 788 336 800 q 342 771 342 775 q 333 740 342 754 q 313 716 325 726 q 284 700 300 706 q 253 694 268 694 q 194 723 218 694 q 169 785 169 751 q 177 817 169 801 q 197 844 185 832 q 224 863 208 856 q 256 871 239 871 q 284 861 271 871 q 297 836 297 851 q 276 800 297 818 q 243 772 256 782 m 542 611 q 554 578 542 592 q 586 565 567 565 q 597 567 593 565 q 607 569 601 569 q 614 565 614 569 q 594 538 614 547 q 560 529 574 529 q 497 553 525 529 q 469 613 469 576 q 493 674 469 647 q 553 701 517 701 q 579 697 565 701 q 606 686 593 693 q 626 668 618 679 q 635 643 635 657 q 601 608 635 608 q 542 619 572 608 l 542 611 m 654 414 q 672 394 661 403 q 696 386 682 386 q 731 399 722 386 q 744 413 739 413 q 749 406 749 413 q 750 397 750 400 q 722 349 750 365 q 667 333 694 333 q 606 359 629 333 q 583 422 583 385 q 613 483 583 461 q 678 504 642 504 q 713 494 696 504 q 729 464 729 485 q 720 446 729 454 q 699 431 711 438 q 675 421 688 425 q 654 414 663 417 m 749 660 q 745 673 749 667 q 735 679 742 679 q 724 674 729 679 q 714 663 719 669 q 701 651 708 657 q 685 646 694 646 q 666 655 674 646 q 658 675 658 664 q 673 698 658 692 q 701 704 688 704 q 735 700 715 704 q 772 688 754 696 q 803 667 790 679 q 815 638 815 654 q 804 592 815 614 q 793 546 793 569 q 797 535 793 540 q 800 524 800 529 q 792 517 800 518 q 782 515 785 515 q 745 522 765 515 q 721 549 725 529 q 703 541 714 543 q 685 539 692 539 q 649 550 665 539 q 632 582 632 561 q 643 617 632 606 q 670 632 654 628 q 704 636 686 636 q 738 636 722 636 q 747 646 744 636 q 749 660 749 656 z "},"A":{"ha":924,"x_min":10,"x_max":917,"o":"m 213 651 q 217 706 224 685 q 199 745 210 726 q 176 784 188 764 q 164 833 164 804 q 219 924 164 894 q 378 951 274 954 q 499 951 439 950 q 597 938 567 954 q 646 876 628 922 q 651 863 649 869 q 655 846 653 856 q 660 823 657 836 q 669 790 664 810 l 824 301 q 850 247 835 268 q 881 208 865 225 q 906 172 896 190 q 917 126 917 153 q 778 0 917 -4 q 604 0 692 3 q 465 126 465 -4 q 480 174 465 153 q 510 214 494 194 q 535 254 525 233 q 536 301 544 275 q 528 310 533 308 q 511 313 524 313 l 340 313 q 317 300 318 313 q 324 253 313 274 q 349 213 335 232 q 377 173 364 193 q 390 126 390 153 q 251 0 390 -6 q 149 0 200 3 q 10 126 10 -6 q 20 172 10 153 q 46 208 31 190 q 77 248 61 226 q 103 303 93 269 l 213 651 m 361 489 q 383 458 353 458 l 468 458 q 488 490 496 458 l 440 675 q 422 699 435 699 q 407 676 411 699 l 361 489 z "},"B":{"ha":874,"x_min":35,"x_max":846,"o":"m 118 650 q 105 705 118 683 q 76 744 92 726 q 48 780 61 761 q 35 825 35 799 q 68 922 35 892 q 174 951 101 953 q 501 951 338 949 q 723 892 644 954 q 801 713 801 829 q 785 622 801 657 q 744 568 768 588 q 697 540 721 549 q 658 525 674 531 q 658 504 628 514 q 707 492 675 499 q 769 464 739 485 q 823 401 800 443 q 846 286 846 360 q 761 72 846 147 q 524 0 676 -3 q 174 0 349 3 q 68 29 101 -1 q 35 126 35 60 q 48 172 35 153 q 76 208 61 190 q 105 247 92 225 q 118 301 118 268 l 118 650 m 413 236 q 460 194 413 194 q 528 224 501 194 q 554 301 554 253 q 528 380 554 350 q 460 410 501 410 q 413 368 413 410 l 413 236 m 413 611 q 450 569 413 569 q 498 598 479 569 q 517 671 517 626 q 499 739 517 714 q 451 764 482 764 q 413 722 413 764 l 413 611 z "},"C":{"ha":835,"x_min":25,"x_max":822,"o":"m 25 472 q 57 669 25 581 q 146 823 89 758 q 283 923 203 888 q 458 958 363 958 q 596 937 533 958 q 704 878 658 915 q 776 789 750 840 q 801 676 801 738 q 762 549 801 597 q 656 501 722 501 q 592 519 615 501 q 556 564 569 538 q 537 622 543 590 q 522 681 531 654 q 498 725 513 707 q 456 743 483 743 q 407 726 429 743 q 368 678 385 708 q 342 608 351 649 q 333 518 333 567 q 385 347 333 406 q 525 288 436 288 q 601 301 569 288 q 657 329 632 314 q 705 358 682 344 q 757 371 728 371 q 814 279 822 371 q 778 164 808 217 q 701 73 749 111 q 589 14 653 35 q 451 -7 525 -7 q 278 28 357 -7 q 144 126 200 63 q 56 278 88 190 q 25 472 25 367 z "},"D":{"ha":931,"x_min":35,"x_max":906,"o":"m 118 650 q 105 705 118 683 q 76 744 92 726 q 48 780 61 761 q 35 825 35 799 q 68 922 35 892 q 174 951 101 953 q 472 951 324 949 q 653 920 574 953 q 790 826 733 888 q 876 677 846 765 q 906 478 906 589 q 875 278 906 367 q 788 126 844 189 q 651 31 732 64 q 469 0 571 -1 q 174 0 322 3 q 68 29 101 -1 q 35 126 35 60 q 48 172 35 153 q 76 208 61 190 q 105 247 92 225 q 118 301 118 268 l 118 650 m 413 257 q 428 226 413 236 q 467 215 443 215 q 563 284 529 215 q 597 479 597 353 q 563 674 597 606 q 467 743 529 743 q 428 733 443 743 q 413 701 413 722 l 413 257 z "},"E":{"ha":840,"x_min":35,"x_max":813,"o":"m 118 650 q 105 705 118 683 q 76 744 92 726 q 48 780 61 761 q 35 825 35 799 q 68 922 35 892 q 174 951 101 953 q 478 951 326 949 q 576 959 531 953 q 661 965 622 965 q 737 948 711 965 q 778 886 763 931 q 794 831 789 856 q 799 778 799 806 q 681 647 799 647 q 642 665 658 647 q 610 702 626 682 q 576 740 594 722 q 529 757 557 757 l 467 757 q 413 715 413 757 l 413 606 q 463 564 413 564 q 501 575 488 564 q 527 599 515 586 q 553 622 539 611 q 590 633 567 633 q 632 611 621 633 q 640 536 643 589 q 639 487 639 517 q 640 435 639 457 q 632 360 643 381 q 592 339 621 339 q 554 350 568 339 q 528 374 540 361 q 501 397 515 386 q 461 408 486 408 q 413 367 413 408 l 413 243 q 471 201 413 201 l 511 201 q 566 222 544 201 q 605 269 588 243 q 641 315 622 294 q 686 336 660 336 q 784 304 756 336 q 813 197 813 272 q 806 137 813 165 q 789 76 800 108 q 746 5 769 24 q 676 -14 722 -14 q 598 -8 639 -14 q 508 0 557 -1 q 174 0 342 3 q 68 29 101 -1 q 35 126 35 60 q 48 172 35 153 q 76 208 61 190 q 105 247 92 225 q 118 301 118 268 l 118 650 z "},"F":{"ha":815,"x_min":35,"x_max":804,"o":"m 118 650 q 105 705 118 683 q 76 744 92 726 q 48 780 61 761 q 35 825 35 799 q 68 922 35 892 q 174 951 101 951 l 478 950 q 570 958 524 950 q 661 965 617 965 q 783 882 757 965 q 799 822 794 847 q 804 765 804 796 q 774 663 804 699 q 686 626 744 626 q 648 646 664 626 q 616 688 632 665 q 581 731 600 711 q 535 750 563 750 l 471 750 q 413 708 413 750 l 413 578 q 427 547 413 558 q 467 536 442 536 q 508 547 493 536 q 534 571 522 558 q 560 594 546 583 q 597 606 574 606 q 639 583 628 606 q 647 508 650 561 q 646 459 646 489 q 647 407 646 429 q 639 332 650 353 q 599 311 628 311 q 560 322 575 311 q 533 346 546 333 q 506 369 521 358 q 463 381 490 381 q 413 339 413 381 l 413 315 q 428 253 413 278 q 461 210 443 229 q 494 172 479 190 q 510 126 510 153 q 476 29 510 60 q 371 0 443 -1 q 174 0 272 3 q 68 29 101 -1 q 35 126 35 60 q 48 172 35 153 q 76 208 61 190 q 105 247 92 225 q 118 301 118 268 l 118 650 z "},"G":{"ha":892,"x_min":25,"x_max":868,"o":"m 25 472 q 57 674 25 585 q 149 827 89 764 q 295 924 210 890 q 486 958 381 958 q 625 941 563 958 q 733 892 688 924 q 802 818 778 861 q 826 722 826 775 q 794 626 826 661 q 707 590 763 590 q 632 614 660 590 q 582 667 604 638 q 535 719 560 696 q 469 743 511 743 q 365 679 403 743 q 326 507 326 615 q 340 396 326 446 q 376 310 353 346 q 433 256 400 275 q 506 236 465 236 q 574 254 546 236 q 601 300 601 272 q 585 331 601 322 q 547 349 568 339 q 510 379 526 360 q 493 442 493 399 q 632 539 493 539 l 729 539 q 835 514 803 539 q 868 431 868 489 q 861 382 868 400 q 845 347 854 364 q 829 311 836 331 q 822 258 822 292 q 824 202 822 239 q 826 135 826 165 q 802 29 826 61 q 721 -3 778 -3 q 658 11 679 -3 q 627 42 638 25 q 613 72 617 58 q 600 86 608 86 q 582 72 593 86 q 549 40 571 57 q 492 8 528 22 q 400 -7 457 -7 q 249 28 318 -7 q 131 128 181 64 q 53 280 81 192 q 25 472 25 368 z "},"H":{"ha":1036,"x_min":35,"x_max":1001,"o":"m 624 650 q 613 705 624 683 q 589 744 601 726 q 565 780 576 761 q 554 825 554 799 q 588 923 554 892 q 693 951 621 954 q 863 951 778 949 q 969 924 938 954 q 1001 825 1001 894 q 988 780 1001 799 q 960 744 975 761 q 931 705 944 726 q 918 650 918 683 l 918 301 q 931 247 918 268 q 960 208 944 225 q 988 172 975 190 q 1001 126 1001 153 q 969 27 1001 57 q 863 0 938 -3 q 693 0 778 3 q 588 28 621 -3 q 554 126 554 60 q 565 172 554 153 q 589 208 576 190 q 613 247 601 225 q 624 301 624 268 l 624 322 q 582 364 624 364 l 454 364 q 413 322 413 364 l 413 301 q 424 247 413 268 q 447 208 435 225 q 471 172 460 190 q 482 126 482 153 q 450 27 482 57 q 343 0 418 -3 q 174 0 258 3 q 68 28 101 -3 q 35 126 35 60 q 48 172 35 153 q 76 208 61 190 q 105 247 92 225 q 118 301 118 268 l 118 650 q 105 705 118 683 q 76 744 92 726 q 48 780 61 761 q 35 825 35 799 q 68 923 35 892 q 174 951 101 954 q 343 951 258 949 q 450 924 418 954 q 482 825 482 894 q 471 780 482 799 q 447 744 460 761 q 424 705 435 726 q 413 650 413 683 l 413 600 q 454 558 413 558 l 582 558 q 624 600 624 558 l 624 650 z "},"I":{"ha":531,"x_min":35,"x_max":496,"o":"m 118 650 q 105 705 118 683 q 76 744 92 726 q 48 780 61 761 q 35 825 35 799 q 68 923 35 892 q 174 951 101 954 q 357 951 265 950 q 463 923 429 954 q 496 825 496 892 q 483 780 496 799 q 454 744 469 761 q 426 705 439 726 q 413 650 413 683 l 413 301 q 426 247 413 268 q 454 208 439 225 q 483 172 469 190 q 496 126 496 153 q 463 28 496 60 q 357 0 429 -3 q 174 0 265 3 q 68 28 101 -3 q 35 126 35 60 q 48 172 35 153 q 76 208 61 190 q 105 247 92 225 q 118 301 118 268 l 118 650 z "},"J":{"ha":779,"x_min":7,"x_max":761,"o":"m 383 636 q 368 698 383 674 q 335 742 353 722 q 301 780 317 761 q 286 825 286 799 q 319 922 286 892 q 425 951 353 953 q 622 951 524 949 q 728 922 694 953 q 761 825 761 892 q 748 780 761 799 q 719 744 735 761 q 691 705 704 726 q 678 650 678 683 l 678 332 q 590 83 678 174 q 347 -7 503 -7 q 209 15 272 -7 q 101 77 146 38 q 32 172 57 117 q 7 294 7 228 q 52 441 7 386 q 174 496 97 496 q 271 462 235 496 q 307 372 307 428 q 292 313 307 335 q 261 276 278 290 q 230 253 244 263 q 215 236 215 244 q 237 217 215 225 q 286 208 258 208 q 358 238 333 208 q 383 321 383 267 l 383 636 z "},"K":{"ha":956,"x_min":35,"x_max":942,"o":"m 413 614 q 442 572 413 572 q 518 643 479 572 q 545 706 540 683 q 548 747 550 729 q 540 782 546 765 q 535 825 535 799 q 566 923 535 892 q 667 951 597 954 q 779 951 724 950 q 886 924 854 954 q 918 825 918 894 q 902 776 918 796 q 859 737 886 757 q 797 690 832 717 q 725 621 763 664 q 687 571 701 593 q 672 538 672 549 q 688 524 672 526 q 726 513 704 521 q 769 484 747 504 q 804 419 792 464 q 835 338 819 368 q 867 289 851 307 q 895 261 882 271 q 919 242 908 251 q 935 217 929 232 q 942 174 942 201 q 888 43 942 90 q 738 -4 833 -4 q 619 28 658 -4 q 560 110 581 60 q 528 224 540 161 q 490 350 515 288 q 468 393 478 382 q 444 404 458 404 q 421 393 429 404 q 413 363 413 382 l 413 301 q 426 247 413 268 q 454 208 439 225 q 483 172 469 190 q 496 126 496 153 q 464 27 496 57 q 357 0 432 -3 q 174 0 265 3 q 68 28 101 -3 q 35 126 35 60 q 48 172 35 153 q 76 208 61 190 q 105 247 92 225 q 118 301 118 268 l 118 650 q 105 705 118 683 q 76 744 92 726 q 48 780 61 761 q 35 825 35 799 q 68 923 35 892 q 174 951 101 954 q 343 951 258 949 q 450 924 418 954 q 482 825 482 894 q 471 780 482 799 q 447 744 460 761 q 424 705 435 726 q 413 650 413 683 l 413 614 z "},"L":{"ha":806,"x_min":35,"x_max":793,"o":"m 118 650 q 105 705 118 683 q 76 744 92 726 q 48 780 61 761 q 35 825 35 799 q 68 922 35 892 q 174 951 101 953 q 371 951 272 949 q 476 922 443 953 q 510 825 510 892 q 494 780 510 799 q 461 742 479 761 q 428 698 443 722 q 413 636 413 674 l 413 264 q 454 222 413 222 l 486 222 q 519 227 507 222 q 540 242 532 232 q 556 272 549 253 q 571 317 563 290 q 606 391 588 369 q 650 413 624 413 q 793 265 793 413 q 790 174 793 224 q 770 83 786 125 q 723 14 754 42 q 635 -14 692 -14 q 562 -7 599 -14 q 489 0 525 0 q 174 0 332 3 q 68 29 101 -1 q 35 126 35 60 q 48 172 35 153 q 76 208 61 190 q 105 247 92 225 q 118 301 118 268 l 118 650 z "},"M":{"ha":1125,"x_min":28,"x_max":1097,"o":"m 336 454 q 324 464 331 468 q 317 443 318 460 l 311 304 q 324 247 310 269 q 357 206 339 225 q 390 169 375 188 q 406 126 406 151 q 372 28 406 60 q 267 0 339 -3 q 167 0 217 3 q 61 28 94 -3 q 28 126 28 60 q 41 172 28 153 q 70 208 54 190 q 99 247 86 225 q 114 301 113 268 l 128 650 q 116 705 129 683 q 87 744 103 726 q 58 780 71 761 q 44 825 44 799 q 78 922 44 892 q 183 951 111 951 l 278 951 q 401 897 375 951 l 558 593 q 576 571 571 571 q 594 593 585 571 l 751 897 q 875 951 779 951 l 942 951 q 1047 922 1014 951 q 1081 825 1081 892 q 1067 780 1081 799 q 1038 744 1054 761 q 1009 705 1022 726 q 997 650 996 683 l 1011 301 q 1026 247 1013 268 q 1055 208 1039 225 q 1084 172 1071 190 q 1097 126 1097 153 q 1064 28 1097 60 q 958 0 1031 -3 q 775 0 867 3 q 669 28 703 -3 q 636 126 636 60 q 651 169 636 151 q 685 206 667 188 q 717 247 703 225 q 731 304 732 269 l 725 443 q 717 463 724 458 q 706 454 711 468 l 624 226 q 565 189 610 189 l 476 189 q 418 226 433 189 l 336 454 z "},"N":{"ha":965,"x_min":35,"x_max":944,"o":"m 118 650 q 105 705 118 683 q 76 744 92 726 q 48 780 61 761 q 35 825 35 799 q 68 922 35 892 q 174 951 101 951 l 274 951 q 350 938 321 951 q 397 897 379 925 l 643 507 q 658 497 651 493 q 664 515 664 500 l 664 636 q 649 698 664 674 q 615 742 633 722 q 582 780 597 761 q 567 825 567 799 q 600 922 567 892 q 706 951 633 951 l 806 951 q 911 922 878 951 q 944 825 944 892 q 931 780 944 799 q 903 744 918 761 q 874 705 888 726 q 861 650 861 683 l 861 297 q 865 193 861 233 q 868 126 868 153 q 832 27 868 58 q 718 -4 796 -4 q 636 11 667 -4 q 582 63 606 26 l 336 454 q 322 463 328 467 q 315 444 315 460 l 315 315 q 331 253 315 278 q 364 210 346 229 q 397 172 382 190 q 413 126 413 153 q 379 30 413 60 q 274 0 346 0 l 174 0 q 68 30 101 0 q 35 126 35 60 q 48 172 35 153 q 76 208 61 190 q 105 247 92 225 q 118 301 118 268 l 118 650 z "},"O":{"ha":957,"x_min":25,"x_max":932,"o":"m 333 514 q 345 388 333 444 q 379 291 357 331 q 433 230 401 251 q 501 208 464 208 q 624 438 624 208 q 579 662 624 581 q 460 743 535 743 q 365 685 397 743 q 333 514 333 626 m 25 475 q 57 674 25 585 q 148 826 89 763 q 290 924 207 889 q 475 958 374 958 q 663 924 579 958 q 807 826 747 889 q 899 673 867 763 q 932 475 932 583 q 899 278 932 367 q 807 126 867 189 q 663 28 747 63 q 475 -7 579 -7 q 290 28 374 -7 q 148 126 207 63 q 57 278 89 189 q 25 475 25 367 z "},"P":{"ha":844,"x_min":35,"x_max":824,"o":"m 525 317 q 504 317 518 317 q 476 317 490 317 q 449 318 461 318 q 433 318 438 318 q 413 301 413 318 q 428 247 413 268 q 461 208 443 225 q 494 172 479 190 q 510 126 510 153 q 476 29 510 60 q 371 0 443 -1 q 174 0 272 3 q 68 29 101 -1 q 35 126 35 60 q 48 172 35 153 q 76 208 61 190 q 105 247 92 225 q 118 301 118 268 l 118 650 q 105 705 118 683 q 76 744 92 726 q 48 780 61 761 q 35 825 35 799 q 68 922 35 892 q 174 951 101 953 q 493 951 333 949 q 631 931 569 953 q 735 869 692 910 q 801 769 778 828 q 824 636 824 710 q 802 505 824 564 q 742 404 781 446 q 647 340 703 363 q 525 317 592 317 m 413 536 q 450 494 413 494 q 511 527 490 494 q 532 622 532 560 q 510 721 532 685 q 451 757 489 757 q 413 715 413 757 l 413 536 z "},"Q":{"ha":957,"x_min":25,"x_max":1022,"o":"m 25 475 q 57 674 25 585 q 148 826 89 763 q 290 924 207 889 q 475 958 374 958 q 663 924 578 958 q 807 826 747 889 q 899 674 867 763 q 932 475 932 585 q 883 238 932 342 q 739 68 833 135 q 710 45 718 53 q 703 31 703 38 q 715 16 703 19 q 747 13 728 13 q 811 16 775 13 q 883 19 847 19 q 936 16 911 19 q 980 2 961 13 q 1010 -26 999 -8 q 1022 -72 1022 -43 q 1008 -140 1022 -108 q 969 -194 993 -171 q 913 -232 944 -218 q 844 -246 881 -246 q 702 -193 776 -246 q 565 -54 628 -140 q 544 -26 553 -36 q 526 -12 535 -17 q 505 -8 517 -8 q 475 -7 493 -7 q 290 28 374 -7 q 148 126 207 63 q 57 278 89 189 q 25 475 25 367 m 333 515 q 379 292 333 375 q 503 208 425 208 q 624 438 624 208 q 580 662 624 581 q 460 743 536 743 q 333 515 333 743 z "},"R":{"ha":908,"x_min":35,"x_max":901,"o":"m 503 256 q 477 349 490 324 q 442 375 464 375 q 413 329 413 375 l 413 301 q 426 247 413 268 q 454 208 439 225 q 483 172 469 190 q 496 126 496 153 q 464 27 496 57 q 357 0 432 -3 q 181 0 269 3 q 69 28 104 -3 q 35 126 35 60 q 48 172 35 153 q 76 208 61 190 q 105 247 92 225 q 118 301 118 268 l 118 650 q 105 705 118 683 q 76 744 92 726 q 48 780 61 761 q 35 825 35 799 q 68 922 35 892 q 174 951 101 953 q 513 951 343 949 q 654 934 592 953 q 760 879 717 915 q 827 791 804 843 q 850 674 850 739 q 829 561 850 603 q 784 496 808 519 q 739 463 760 472 q 718 446 718 453 q 726 435 718 442 q 744 419 733 429 q 768 394 756 410 q 789 354 781 379 q 823 296 804 315 q 860 262 842 276 q 890 229 878 247 q 901 174 901 211 q 849 44 901 93 q 710 -4 797 -4 q 576 56 624 -4 q 503 256 529 115 m 413 557 q 457 515 413 515 q 531 549 503 515 q 558 640 558 583 q 532 726 558 694 q 457 757 506 757 q 413 722 413 757 l 413 557 z "},"S":{"ha":767,"x_min":28,"x_max":742,"o":"m 49 692 q 74 801 49 753 q 147 885 100 850 q 261 940 194 921 q 410 958 328 958 q 540 944 481 958 q 640 903 599 929 q 705 840 682 876 q 728 758 728 803 q 694 663 728 700 q 607 625 660 625 q 538 644 568 625 q 483 688 508 664 q 435 731 458 711 q 388 750 413 750 q 358 740 369 750 q 347 715 347 731 q 370 674 347 696 q 428 630 393 653 q 505 581 463 607 q 586 528 547 556 q 705 410 668 469 q 742 275 742 350 q 715 158 742 210 q 640 69 689 106 q 522 13 592 32 q 364 -7 451 -7 q 225 8 288 -7 q 119 50 163 22 q 51 117 75 78 q 28 203 28 156 q 67 303 28 265 q 169 340 106 340 q 253 319 219 340 q 313 274 288 299 q 358 229 338 250 q 401 208 378 208 q 426 217 417 208 q 436 240 436 226 q 417 283 436 261 q 368 325 397 304 q 306 367 339 346 q 244 406 272 388 q 97 542 144 472 q 49 692 49 611 z "},"T":{"ha":901,"x_min":11,"x_max":889,"o":"m 306 683 q 299 715 306 701 q 283 729 292 729 q 263 706 272 729 q 233 635 253 683 q 195 560 214 582 q 151 539 176 539 q 45 574 79 539 q 11 686 11 610 q 17 756 11 718 q 35 842 22 793 q 86 936 51 907 q 183 965 121 965 q 258 959 219 965 q 338 951 297 953 q 564 951 451 949 q 647 959 606 953 q 733 965 689 965 q 788 960 765 965 q 826 940 811 954 q 853 902 842 926 q 874 842 864 878 q 888 755 886 793 q 889 686 889 717 q 746 539 889 539 q 701 560 719 539 q 667 635 683 582 q 642 709 649 689 q 624 729 635 729 q 606 716 613 729 q 600 683 600 703 l 600 315 q 615 253 600 278 q 649 210 631 229 q 682 172 667 190 q 697 126 697 153 q 664 29 697 60 q 558 0 631 -1 q 347 0 453 3 q 242 29 275 -1 q 208 126 208 60 q 224 172 208 153 q 257 210 239 190 q 290 253 275 229 q 306 315 306 278 l 306 683 z "},"U":{"ha":949,"x_min":18,"x_max":931,"o":"m 650 636 q 635 698 650 674 q 601 742 619 722 q 568 780 583 761 q 553 825 553 799 q 586 922 553 892 q 692 951 619 951 l 792 951 q 897 922 864 951 q 931 825 931 892 q 917 780 931 799 q 889 744 904 761 q 860 705 874 726 q 847 650 847 683 l 847 357 q 756 82 847 171 q 472 -7 664 -7 q 192 82 282 -7 q 101 357 101 171 l 101 650 q 88 705 101 683 q 60 744 75 726 q 31 780 44 761 q 18 825 18 799 q 51 923 18 892 q 157 951 85 954 q 340 951 249 950 q 447 924 415 954 q 479 825 479 894 q 466 780 479 799 q 438 744 453 761 q 409 705 422 726 q 396 650 396 683 l 396 357 q 430 258 396 294 q 524 222 464 222 q 616 258 582 222 q 650 357 650 294 l 650 636 z "},"V":{"ha":961,"x_min":7,"x_max":954,"o":"m 621 653 q 619 699 628 679 q 597 739 610 719 q 572 778 583 758 q 560 825 560 799 q 593 922 560 892 q 699 951 626 951 l 815 951 q 921 922 888 951 q 954 825 954 892 q 944 782 954 800 q 918 747 933 764 q 888 709 903 729 q 861 657 872 689 l 707 186 q 692 140 697 158 q 685 110 688 122 q 681 91 682 99 q 676 76 679 83 q 626 18 661 36 q 528 0 590 0 l 433 0 q 285 76 311 0 q 281 92 282 85 q 276 113 279 100 q 267 147 272 126 q 250 200 261 167 l 103 650 q 76 705 92 683 q 44 744 60 726 q 18 780 29 761 q 7 825 7 799 q 146 951 7 956 q 326 951 236 949 q 465 825 465 956 q 455 780 465 800 q 434 741 444 760 q 417 702 424 722 q 417 657 410 682 l 507 322 q 526 299 513 299 q 543 321 539 299 l 621 653 z "},"W":{"ha":1261,"x_min":10,"x_max":1251,"o":"m 597 158 q 586 104 589 119 q 579 76 583 89 q 431 0 553 0 l 396 0 q 247 76 274 0 q 243 92 244 85 q 239 113 242 100 q 231 147 236 126 q 218 200 226 167 l 96 664 q 74 713 88 693 q 45 749 60 732 q 20 783 31 765 q 10 825 10 800 q 149 951 10 956 q 308 951 229 949 q 447 825 447 956 q 436 778 447 799 q 413 738 425 757 q 392 698 400 718 q 392 650 385 678 l 461 365 q 475 349 465 349 q 494 371 489 349 l 564 660 q 560 703 569 685 q 538 741 551 722 q 512 780 524 760 q 500 825 500 800 q 533 922 500 892 q 639 951 567 951 l 707 951 q 813 922 779 951 q 846 825 846 892 q 835 778 846 799 q 811 740 824 758 q 791 701 799 721 q 790 656 783 681 l 869 368 q 886 349 874 349 q 904 372 900 349 l 967 668 q 959 708 971 690 q 931 744 947 726 q 901 781 915 761 q 888 825 888 800 q 921 922 888 892 q 1026 951 954 951 l 1113 951 q 1218 922 1185 951 q 1251 825 1251 892 q 1241 783 1251 800 q 1217 748 1231 765 q 1189 711 1203 731 q 1167 663 1175 692 l 1046 200 q 1033 147 1038 167 q 1025 113 1028 126 q 1020 92 1022 100 q 1015 78 1018 85 q 965 19 1000 38 q 867 0 931 0 l 843 0 q 694 76 721 0 q 688 103 690 89 q 679 151 686 117 l 646 304 q 637 318 643 318 q 628 304 631 318 l 597 158 z "},"X":{"ha":929,"x_min":22,"x_max":907,"o":"m 163 650 q 115 705 138 683 q 74 744 92 726 q 47 780 57 761 q 36 825 36 799 q 69 923 36 892 q 175 951 103 954 q 342 951 258 950 q 447 923 414 954 q 481 825 481 892 q 476 778 481 799 q 469 738 471 757 q 472 698 467 718 q 496 650 476 678 l 522 613 q 550 615 540 589 l 569 661 q 573 703 579 685 q 555 741 567 722 q 531 780 543 760 q 519 825 519 800 q 553 922 519 892 q 658 951 586 951 l 761 951 q 867 922 833 951 q 900 825 900 892 q 888 783 900 800 q 857 749 875 765 q 817 713 839 732 q 778 664 796 693 l 669 489 q 672 443 656 465 l 781 301 q 828 247 806 268 q 869 208 851 225 q 897 172 886 190 q 907 126 907 153 q 775 0 907 -4 q 601 0 689 3 q 496 28 529 -3 q 463 126 463 60 q 467 174 463 153 q 474 214 472 194 q 472 254 476 233 q 447 301 467 275 l 413 351 q 385 349 394 375 l 365 299 q 360 252 356 272 q 374 213 364 232 q 393 173 383 193 q 403 126 403 153 q 369 30 403 60 q 264 0 336 0 l 161 0 q 56 30 89 0 q 22 126 22 60 q 35 169 22 151 q 65 203 47 186 q 105 239 83 219 q 144 288 126 258 l 263 478 q 260 524 276 501 l 163 650 z "},"Y":{"ha":917,"x_min":7,"x_max":910,"o":"m 311 307 q 306 330 311 322 q 286 344 301 338 q 265 359 272 351 q 250 382 257 367 l 107 665 q 75 714 93 694 q 42 749 57 733 q 17 783 28 765 q 7 825 7 800 q 146 951 7 956 q 319 951 233 949 q 458 825 458 956 q 447 778 458 799 q 424 739 435 758 q 406 699 413 719 q 411 654 400 679 l 483 488 q 498 476 489 475 q 513 489 507 476 l 582 658 q 585 702 592 683 q 565 740 578 721 q 541 778 553 758 q 529 825 529 799 q 563 922 529 892 q 668 951 596 951 l 771 951 q 876 922 843 951 q 910 825 910 892 q 899 780 910 799 q 872 743 889 761 q 837 703 856 725 q 801 649 818 682 l 667 382 q 652 359 660 367 q 631 344 644 351 q 610 329 615 338 q 606 306 606 321 q 621 255 606 276 q 654 213 636 233 q 688 173 672 193 q 703 126 703 153 q 669 30 703 60 q 564 0 636 0 l 353 0 q 247 30 281 0 q 214 126 214 60 q 229 174 214 153 q 263 214 244 194 q 296 256 281 233 q 311 307 311 278 z "},"Z":{"ha":807,"x_min":33,"x_max":776,"o":"m 249 496 q 351 633 317 582 q 398 709 386 683 q 403 742 410 735 q 382 750 397 750 l 303 750 q 256 728 275 750 q 222 681 238 707 q 191 634 207 656 q 151 613 175 613 q 64 649 94 613 q 33 757 33 686 q 38 814 33 788 q 54 879 42 840 q 178 965 82 965 q 266 959 222 965 q 354 951 310 953 q 624 951 490 949 q 731 924 699 953 q 763 825 763 894 l 763 792 q 729 692 763 736 l 557 456 q 455 315 492 367 q 403 239 418 264 q 391 208 388 214 q 411 201 394 201 l 475 201 q 528 229 506 201 q 569 290 550 257 q 606 350 588 322 q 650 378 625 378 q 748 346 719 378 q 776 239 776 314 q 772 173 776 208 q 758 97 767 138 q 715 9 744 35 q 631 -14 686 -17 q 553 -6 594 -12 q 475 1 511 0 q 395 3 432 3 q 323 2 358 3 q 251 1 288 1 q 172 0 214 0 q 65 27 97 -1 q 33 126 33 56 l 33 165 q 67 265 33 224 l 249 496 z "},"a":{"ha":772,"x_min":25,"x_max":765,"o":"m 689 344 q 701 274 689 296 q 727 238 713 251 q 753 211 742 225 q 765 165 765 197 q 750 100 765 131 q 708 47 735 69 q 646 10 681 24 q 571 -4 611 -4 q 492 18 517 -4 q 456 67 467 40 q 441 117 444 94 q 428 139 438 139 q 413 116 418 139 q 392 66 407 93 q 342 16 376 39 q 239 -7 307 -7 q 83 44 140 -7 q 25 183 25 96 q 49 281 25 238 q 117 356 72 325 q 224 403 161 386 q 365 419 286 419 q 402 422 393 419 q 411 432 411 425 l 411 469 q 404 531 411 514 q 381 549 397 549 q 344 531 360 549 q 308 491 329 513 q 256 451 288 469 q 174 433 225 433 q 86 458 117 433 q 56 529 56 483 q 80 603 56 569 q 148 663 104 638 q 252 701 192 688 q 385 715 313 715 q 616 653 536 715 q 696 474 696 592 q 692 412 696 444 q 689 347 689 379 l 689 344 m 361 196 q 398 222 385 196 q 411 294 411 247 l 411 308 q 406 325 411 321 q 383 329 400 329 q 324 313 344 329 q 303 267 303 296 q 320 217 303 239 q 361 196 338 196 z "},"b":{"ha":813,"x_min":-14,"x_max":785,"o":"m 331 139 q 317 117 321 139 q 303 67 314 94 q 265 18 292 40 q 185 -4 239 -4 q 78 26 115 -4 q 42 110 42 56 q 52 190 42 144 q 63 303 63 236 l 63 651 q 51 706 63 685 q 24 745 39 728 q -2 781 10 763 q -14 826 -14 800 q 44 924 -14 893 q 229 956 103 956 q 368 849 368 956 q 358 765 368 811 q 347 651 347 718 l 347 574 q 349 549 347 556 q 354 543 350 543 q 373 570 365 543 q 397 629 381 597 q 447 688 414 661 q 540 715 481 715 q 641 690 596 715 q 718 617 686 664 q 767 503 750 569 q 785 357 785 438 q 767 208 785 275 q 717 94 750 142 q 640 19 685 46 q 539 -7 594 -7 q 456 4 489 -7 q 401 31 422 15 q 369 66 381 47 q 352 101 358 85 q 342 128 346 117 q 331 139 338 139 m 347 357 q 369 238 347 282 q 428 194 392 194 q 486 315 486 194 q 465 434 486 390 q 407 478 443 478 q 347 357 347 478 z "},"c":{"ha":721,"x_min":25,"x_max":704,"o":"m 25 357 q 51 503 25 438 q 124 617 76 569 q 240 690 172 664 q 389 715 307 715 q 510 699 454 715 q 606 654 565 683 q 669 585 646 625 q 692 496 692 544 q 653 394 692 432 q 549 356 614 356 q 486 370 508 356 q 453 406 464 385 q 438 452 442 426 q 431 499 435 478 q 419 534 426 519 q 393 549 411 549 q 343 509 363 549 q 324 407 324 469 q 362 280 324 324 q 474 236 400 236 q 530 242 503 236 q 581 257 557 249 q 624 272 604 265 q 658 278 643 278 q 696 210 704 278 q 664 123 690 163 q 596 54 638 83 q 499 9 554 25 q 382 -7 444 -7 q 237 19 303 -7 q 124 94 171 46 q 51 209 78 142 q 25 357 25 276 z "},"d":{"ha":835,"x_min":28,"x_max":826,"o":"m 750 344 q 762 274 750 296 q 788 239 774 251 q 815 215 803 226 q 826 175 826 203 q 811 104 826 138 q 769 47 796 71 q 704 10 742 24 q 624 -4 667 -4 q 549 22 574 -4 q 513 81 525 49 q 497 139 501 113 q 485 165 493 165 q 470 138 476 165 q 447 79 464 111 q 395 20 431 47 q 292 -7 360 -7 q 182 18 231 -7 q 99 90 133 43 q 46 203 64 138 q 28 353 28 269 q 46 501 28 435 q 97 616 64 568 q 176 690 129 664 q 279 715 222 715 q 367 692 336 715 q 415 642 399 669 q 438 592 431 615 q 453 569 444 569 q 462 581 458 569 q 465 613 465 593 l 465 651 q 453 706 465 685 q 427 745 442 728 q 401 781 413 763 q 389 826 389 800 q 447 924 389 893 q 632 956 506 956 q 771 849 771 956 q 760 765 771 811 q 750 651 750 718 l 750 344 m 465 351 q 443 470 465 426 q 385 514 421 514 q 326 393 326 514 q 348 274 326 318 q 406 231 369 231 q 465 351 465 231 z "},"e":{"ha":724,"x_min":25,"x_max":701,"o":"m 25 367 q 51 512 25 447 q 123 622 76 576 q 234 691 169 667 q 376 715 299 715 q 508 695 449 715 q 611 639 568 675 q 678 553 654 603 q 701 444 701 504 q 692 388 701 411 q 662 351 683 365 q 605 332 640 338 q 515 326 569 326 q 423 330 461 326 q 361 333 385 333 q 333 328 340 333 q 325 310 325 324 q 361 256 325 275 q 460 236 397 236 q 528 242 499 236 q 580 257 557 249 q 620 272 603 265 q 651 278 638 278 q 690 211 697 278 q 660 125 686 165 q 592 56 633 85 q 495 10 550 26 q 379 -7 440 -7 q 235 21 300 -7 q 123 99 169 49 q 51 217 76 149 q 25 367 25 286 m 307 461 q 374 424 307 424 q 418 434 406 424 q 431 471 431 444 q 413 531 431 507 q 372 556 396 556 q 349 547 360 556 q 328 526 338 539 q 313 495 318 513 q 307 461 307 478 z "},"f":{"ha":532,"x_min":21,"x_max":560,"o":"m 78 457 q 37 480 53 457 q 21 540 21 503 q 39 601 21 582 q 78 628 57 619 q 117 640 99 636 q 135 653 135 643 q 119 669 135 663 q 85 685 104 675 q 51 717 67 696 q 35 776 35 738 q 54 850 35 817 q 110 907 74 883 q 197 943 146 931 q 310 956 247 956 q 493 913 426 956 q 560 796 560 871 q 531 717 560 747 q 453 688 501 688 q 394 703 415 688 q 360 738 374 719 q 334 773 346 757 q 306 789 322 789 q 271 733 271 789 q 300 672 271 692 q 392 653 329 653 q 484 632 456 653 q 513 567 513 611 q 485 492 513 519 q 410 464 457 464 q 382 453 388 464 q 378 403 376 443 l 379 311 q 394 254 379 278 q 426 210 408 231 q 458 171 443 190 q 472 126 472 151 q 438 25 472 53 q 333 0 403 -3 q 160 0 247 3 q 57 26 93 -3 q 21 126 21 56 q 33 172 21 153 q 59 209 44 190 q 85 249 74 228 q 97 301 97 271 l 97 425 q 93 451 97 444 q 78 457 89 457 z "},"g":{"ha":763,"x_min":7,"x_max":772,"o":"m 724 411 q 688 285 724 343 q 592 197 653 228 q 592 176 571 188 q 711 92 675 135 q 747 -11 747 49 q 720 -110 747 -65 q 644 -185 693 -154 q 525 -233 594 -217 q 369 -250 456 -250 q 222 -235 289 -250 q 108 -192 156 -219 q 33 -127 60 -165 q 7 -43 7 -89 q 43 47 7 14 q 142 79 79 79 q 231 56 196 79 q 292 5 265 33 q 343 -47 319 -24 q 397 -69 367 -69 q 440 -50 425 -69 q 456 6 456 -31 q 421 83 456 56 q 311 122 386 111 q 188 157 243 132 q 93 220 132 182 q 33 308 54 258 q 13 415 13 357 q 38 538 13 482 q 108 633 63 593 q 216 694 153 672 q 356 715 279 715 q 444 708 410 715 q 497 700 478 700 q 524 713 515 700 q 535 761 532 725 q 657 913 547 913 q 740 879 708 913 q 772 792 772 846 q 736 692 772 735 q 638 633 700 650 q 627 628 626 631 q 633 619 628 625 q 699 522 675 578 q 724 411 724 467 m 432 449 q 417 542 432 507 q 375 576 401 576 q 324 528 343 576 q 304 404 304 479 q 318 306 304 342 q 356 271 332 271 q 385 285 371 271 q 409 324 399 300 q 426 381 419 349 q 432 449 432 413 z "},"h":{"ha":888,"x_min":19,"x_max":874,"o":"m 499 169 q 506 255 499 210 q 513 357 513 300 q 498 450 513 422 q 451 478 483 478 q 397 439 413 478 q 381 308 381 400 l 381 301 q 390 247 381 268 q 409 208 399 225 q 428 172 419 190 q 436 126 436 153 q 404 27 436 57 q 297 0 372 -3 q 158 0 228 3 q 53 28 86 -3 q 19 126 19 60 q 31 172 19 153 q 58 208 43 190 q 84 247 72 225 q 96 301 96 268 l 96 651 q 84 706 96 685 q 58 745 72 728 q 31 781 43 763 q 19 826 19 800 q 78 924 19 893 q 263 956 136 956 q 401 849 401 956 q 391 765 401 811 q 381 651 381 718 l 381 574 q 389 543 381 543 q 401 556 396 543 q 414 588 406 568 q 435 629 422 607 q 469 671 447 651 q 525 703 492 690 q 607 715 558 715 q 758 660 706 715 q 811 500 811 604 q 810 464 811 485 q 808 422 808 443 q 806 380 807 400 q 804 344 804 360 q 815 276 804 296 q 839 246 826 257 q 863 222 851 235 q 874 175 874 210 q 858 103 874 136 q 816 47 843 71 q 751 9 789 22 q 668 -4 713 -4 q 542 41 585 -4 q 499 169 499 86 z "},"i":{"ha":478,"x_min":21,"x_max":458,"o":"m 97 407 q 85 462 97 440 q 59 501 74 483 q 33 537 44 518 q 21 582 21 556 q 78 680 21 649 q 264 711 136 711 q 369 685 336 711 q 403 604 403 658 q 392 520 403 567 q 382 407 382 474 l 382 301 q 394 247 382 268 q 420 208 406 225 q 447 172 435 190 q 458 126 458 153 q 426 27 458 57 q 319 0 394 -3 q 160 0 240 3 q 54 28 88 -3 q 21 126 21 60 q 33 172 21 153 q 59 208 44 190 q 85 247 74 225 q 97 301 97 268 l 97 407 m 43 879 q 94 987 43 946 q 226 1028 144 1028 q 346 992 301 1028 q 390 894 390 957 q 340 787 390 828 q 207 746 289 746 q 88 781 132 746 q 43 879 43 817 z "},"j":{"ha":458,"x_min":-65,"x_max":403,"o":"m 43 879 q 94 987 43 946 q 226 1028 144 1028 q 346 992 301 1028 q 390 894 390 957 q 340 787 390 828 q 207 746 289 746 q 88 781 132 746 q 43 879 43 817 m 63 -250 q -65 -162 -65 -250 q -53 -116 -65 -135 q -24 -83 -42 -97 q 16 -54 -6 -68 q 56 -19 38 -40 q 85 31 74 1 q 97 106 97 60 l 97 407 q 85 462 97 440 q 59 501 74 483 q 33 537 44 518 q 21 582 21 556 q 79 680 21 649 q 264 711 138 711 q 403 604 403 711 q 392 520 403 567 q 382 407 382 474 l 382 111 q 359 -37 382 29 q 294 -151 336 -104 q 194 -224 253 -199 q 63 -250 135 -250 z "},"k":{"ha":867,"x_min":19,"x_max":851,"o":"m 96 651 q 84 706 96 685 q 58 745 72 728 q 31 781 43 763 q 19 826 19 800 q 78 924 19 893 q 263 956 136 956 q 401 849 401 956 q 391 765 401 811 q 381 651 381 718 l 381 479 q 411 436 381 436 q 437 443 424 436 q 462 461 450 450 q 481 485 474 472 q 488 510 488 497 q 482 523 488 518 q 469 536 476 528 q 456 558 461 544 q 450 597 450 572 q 589 708 450 708 l 685 708 q 791 683 758 708 q 824 600 824 658 q 799 523 824 546 q 746 489 775 500 q 692 465 717 478 q 668 419 668 453 q 675 389 668 404 q 699 350 682 374 q 765 277 736 299 q 813 244 793 256 q 842 219 832 232 q 851 174 851 207 q 799 45 851 94 q 658 -4 746 -4 q 572 15 604 -4 q 520 64 539 35 q 492 127 501 93 q 476 190 483 161 q 442 298 460 265 q 401 331 425 331 q 381 301 381 331 q 388 247 381 268 q 405 208 396 225 q 422 172 414 190 q 429 126 429 153 q 397 27 429 57 q 290 0 365 -3 q 158 0 225 3 q 53 28 86 -3 q 19 126 19 60 q 31 172 19 153 q 58 208 43 190 q 84 247 72 225 q 96 301 96 268 l 96 651 z "},"l":{"ha":476,"x_min":19,"x_max":457,"o":"m 96 651 q 84 706 96 685 q 58 745 72 728 q 31 781 43 763 q 19 826 19 800 q 78 924 19 893 q 263 956 136 956 q 401 849 401 956 q 391 765 401 811 q 381 651 381 718 l 381 301 q 392 247 381 268 q 419 208 404 225 q 445 172 433 190 q 457 126 457 153 q 425 27 457 57 q 318 0 393 -3 q 158 0 239 3 q 53 28 86 -3 q 19 126 19 60 q 31 172 19 153 q 58 208 43 190 q 84 247 72 225 q 96 301 96 268 l 96 651 z "},"m":{"ha":1285,"x_min":21,"x_max":1271,"o":"m 97 407 q 85 462 97 440 q 59 501 74 483 q 33 537 44 518 q 21 582 21 556 q 76 680 21 649 q 251 711 132 711 q 353 693 325 711 q 382 629 382 675 l 382 574 q 390 543 382 543 q 408 570 400 543 q 435 629 415 597 q 492 688 454 661 q 601 715 531 715 q 785 571 751 715 q 800 543 792 543 q 817 570 810 543 q 844 629 825 597 q 902 688 864 661 q 1011 715 940 715 q 1158 660 1107 715 q 1208 501 1208 604 q 1207 464 1208 485 q 1205 422 1206 443 q 1203 380 1204 400 q 1201 344 1201 360 q 1213 276 1201 296 q 1236 246 1224 257 q 1260 222 1249 235 q 1271 175 1271 210 q 1256 103 1271 136 q 1213 47 1240 71 q 1148 9 1186 22 q 1065 -4 1110 -4 q 939 41 982 -4 q 896 169 896 86 q 903 255 896 210 q 910 358 910 300 q 897 449 910 421 q 856 478 883 478 q 806 439 821 478 q 792 308 792 400 l 792 301 q 799 247 792 268 q 816 208 807 225 q 833 172 825 190 q 840 126 840 153 q 808 28 840 57 q 701 0 776 0 l 618 0 q 513 30 546 0 q 479 126 479 60 q 483 172 479 153 q 490 208 486 190 q 497 247 493 225 q 500 301 500 268 l 500 358 q 487 449 500 421 q 446 478 474 478 q 397 439 411 478 q 382 308 382 400 l 382 301 q 390 247 382 268 q 406 208 397 225 q 423 172 415 190 q 431 126 431 153 q 399 26 431 56 q 292 0 367 -3 q 160 0 226 3 q 21 126 21 -4 q 33 172 21 153 q 59 208 44 190 q 85 247 74 225 q 97 301 97 268 l 97 407 z "},"n":{"ha":889,"x_min":21,"x_max":875,"o":"m 500 169 q 507 255 500 210 q 514 357 514 300 q 499 450 514 422 q 453 478 485 478 q 398 439 414 478 q 382 308 382 400 l 382 301 q 391 247 382 268 q 410 208 400 225 q 429 172 421 190 q 438 126 438 153 q 406 26 438 56 q 299 0 374 -3 q 160 0 229 3 q 21 126 21 -4 q 33 172 21 153 q 59 208 44 190 q 85 247 74 225 q 97 301 97 268 l 97 407 q 85 462 97 440 q 59 501 74 483 q 33 537 44 518 q 21 582 21 556 q 76 680 21 649 q 251 711 132 711 q 353 693 325 711 q 382 629 382 675 l 382 574 q 390 543 382 543 q 402 556 397 543 q 415 588 407 568 q 436 629 424 607 q 471 671 449 651 q 526 703 493 690 q 608 715 560 715 q 760 660 707 715 q 813 500 813 604 q 811 464 813 485 q 809 422 810 443 q 807 380 808 400 q 806 344 806 360 q 817 276 806 296 q 840 246 828 257 q 864 222 853 235 q 875 175 875 210 q 860 103 875 136 q 817 47 844 71 q 752 9 790 22 q 669 -4 714 -4 q 543 41 586 -4 q 500 169 500 86 z "},"o":{"ha":801,"x_min":25,"x_max":776,"o":"m 25 354 q 52 503 25 436 q 128 617 79 569 q 245 690 176 664 q 399 715 314 715 q 554 690 485 715 q 673 616 624 664 q 749 502 722 568 q 776 354 776 436 q 749 207 776 274 q 673 92 722 140 q 554 19 624 44 q 399 -7 485 -7 q 245 19 314 -7 q 128 92 176 44 q 52 206 79 139 q 25 354 25 272 m 324 381 q 348 220 324 281 q 413 160 372 160 q 478 328 478 160 q 455 490 478 431 q 392 549 432 549 q 324 381 324 549 z "},"p":{"ha":843,"x_min":17,"x_max":815,"o":"m 378 72 q 392 10 378 35 q 423 -33 406 -14 q 454 -72 440 -53 q 468 -117 468 -90 q 436 -216 468 -186 q 329 -243 404 -246 q 156 -243 243 -240 q 50 -215 83 -246 q 17 -117 17 -183 q 28 -72 17 -90 q 55 -35 40 -53 q 81 3 69 -18 q 93 58 93 25 l 93 407 q 81 462 93 440 q 55 501 69 483 q 28 537 40 518 q 17 582 17 556 q 70 680 17 649 q 239 711 124 711 q 337 693 310 711 q 364 629 364 675 l 364 574 q 372 543 364 543 q 388 570 381 543 q 414 629 396 597 q 466 688 432 661 q 563 715 500 715 q 666 690 619 715 q 746 617 713 664 q 797 502 779 569 q 815 353 815 435 q 798 206 815 272 q 749 93 781 140 q 674 19 718 46 q 575 -7 629 -7 q 490 16 521 -7 q 442 66 460 39 q 416 116 425 93 q 394 139 407 139 q 378 96 378 139 l 378 72 m 378 357 q 400 238 378 282 q 458 194 422 194 q 517 315 517 194 q 495 434 517 390 q 438 478 474 478 q 378 357 378 478 z "},"q":{"ha":826,"x_min":28,"x_max":826,"o":"m 482 569 q 495 592 492 569 q 510 641 499 614 q 547 690 521 668 q 628 713 574 713 q 734 683 697 713 q 771 599 771 653 q 760 518 771 564 q 750 406 750 472 l 750 57 q 762 2 750 24 q 788 -37 774 -19 q 815 -73 803 -54 q 826 -118 826 -92 q 768 -216 826 -185 q 583 -247 710 -247 q 444 -140 444 -247 q 455 -56 444 -103 q 465 57 465 -10 l 465 138 q 458 165 465 165 q 440 138 449 165 q 415 79 432 111 q 366 20 399 47 q 272 -7 333 -7 q 172 19 217 -7 q 94 92 126 44 q 45 205 63 139 q 28 351 28 271 q 46 500 28 433 q 96 615 64 567 q 173 689 128 663 q 274 715 218 715 q 388 692 349 715 q 444 642 426 669 q 467 592 461 615 q 482 569 472 569 m 465 351 q 443 470 465 426 q 385 514 421 514 q 326 393 326 514 q 348 274 326 318 q 406 231 369 231 q 465 351 465 231 z "},"r":{"ha":718,"x_min":21,"x_max":714,"o":"m 579 363 q 517 378 538 363 q 484 413 496 394 q 462 448 472 432 q 431 464 451 464 q 394 431 406 464 q 382 315 382 399 q 396 253 382 278 q 427 210 410 229 q 458 172 444 190 q 472 126 472 153 q 440 26 472 56 q 333 0 408 -3 q 160 0 247 3 q 21 126 21 -4 q 33 172 21 153 q 59 208 44 190 q 85 247 74 225 q 97 301 97 268 l 97 407 q 85 462 97 440 q 59 501 74 483 q 33 537 44 518 q 21 582 21 556 q 74 680 21 649 q 243 711 128 711 q 341 693 314 711 q 368 629 368 675 l 368 586 q 378 557 368 557 q 397 581 389 557 q 419 635 404 606 q 466 688 435 664 q 557 713 497 713 q 674 667 633 713 q 714 533 714 621 q 679 406 714 450 q 579 363 644 363 z "},"s":{"ha":675,"x_min":28,"x_max":650,"o":"m 36 503 q 120 659 36 603 q 351 715 204 715 q 556 672 482 715 q 629 549 629 628 q 603 473 629 503 q 538 443 578 443 q 478 462 504 443 q 431 503 453 481 q 390 544 410 525 q 344 563 369 563 q 314 539 314 563 q 333 506 314 522 q 382 473 351 490 q 450 435 413 456 q 525 390 488 415 q 621 300 592 346 q 650 196 650 254 q 322 -7 650 -7 q 103 33 178 -7 q 28 149 28 72 q 58 232 28 199 q 135 265 89 265 q 197 247 171 265 q 244 206 222 228 q 288 165 267 183 q 336 146 310 146 q 365 167 365 146 q 344 200 365 183 q 290 235 322 217 q 217 276 257 254 q 142 324 178 297 q 61 407 86 364 q 36 503 36 450 z "},"t":{"ha":554,"x_min":6,"x_max":539,"o":"m 58 513 q 21 534 36 513 q 6 593 6 556 q 16 640 6 624 q 40 667 26 657 q 69 685 54 678 q 93 704 83 693 q 118 749 107 721 q 147 803 129 776 q 191 848 164 829 q 261 867 218 867 q 319 846 301 867 q 343 775 336 825 q 351 738 346 751 q 362 719 356 725 q 378 711 368 713 q 401 710 388 710 q 481 688 457 710 q 506 615 506 665 q 485 545 506 571 q 429 519 465 519 l 404 519 q 369 513 381 519 q 360 479 358 507 l 364 303 q 373 258 364 272 q 396 238 382 243 q 426 235 410 233 q 460 236 443 236 q 539 160 539 236 q 523 92 539 122 q 477 40 507 61 q 406 6 447 18 q 315 -7 365 -7 q 139 53 203 -7 q 75 217 75 113 q 76 258 75 232 q 78 314 78 283 q 81 378 79 344 q 82 440 82 411 q 78 499 82 485 q 58 513 74 513 z "},"u":{"ha":874,"x_min":10,"x_max":864,"o":"m 378 549 q 374 450 378 500 q 371 351 371 400 q 385 258 371 286 q 432 231 400 231 q 487 269 471 231 q 503 400 503 308 l 503 407 q 491 462 503 440 q 465 501 479 483 q 438 537 450 518 q 426 582 426 556 q 485 680 426 649 q 669 711 543 711 q 808 604 808 711 q 798 520 808 567 q 788 407 788 474 l 788 344 q 799 274 788 296 q 826 239 811 251 q 852 215 840 226 q 864 175 864 203 q 849 105 864 138 q 807 48 833 72 q 745 10 781 24 q 669 -4 710 -4 q 584 22 611 -4 q 546 81 557 49 q 531 139 535 113 q 517 165 528 165 q 497 138 507 165 q 466 79 488 111 q 403 20 444 47 q 286 -7 361 -7 q 133 49 186 -7 q 79 208 79 104 q 83 292 79 240 q 86 407 86 344 q 74 462 86 440 q 48 501 63 483 q 22 537 33 518 q 10 582 10 556 q 71 680 10 649 q 260 711 132 711 q 316 703 293 711 q 353 677 339 696 q 372 627 367 658 q 378 549 378 596 z "},"v":{"ha":785,"x_min":1,"x_max":783,"o":"m 83 404 q 58 460 72 438 q 31 500 43 482 q 10 537 18 518 q 1 582 1 556 q 56 680 1 649 q 228 711 110 711 q 327 685 296 711 q 358 601 358 658 q 356 565 358 585 q 353 524 354 546 q 354 475 351 501 q 367 418 357 449 l 418 260 q 432 230 425 238 q 450 222 439 222 q 467 231 461 222 q 478 260 474 239 l 507 410 q 505 463 514 442 q 482 501 496 483 q 456 538 468 519 q 444 582 444 556 q 478 678 444 647 q 586 708 513 708 l 644 708 q 751 680 719 708 q 783 582 783 651 q 775 537 783 556 q 754 500 767 518 q 728 460 742 482 q 703 404 714 438 l 610 121 q 444 0 571 0 l 343 0 q 178 121 218 0 l 83 404 z "},"w":{"ha":1113,"x_min":1,"x_max":1111,"o":"m 76 422 q 56 470 68 451 q 31 506 43 489 q 10 540 19 522 q 1 582 1 557 q 56 680 1 649 q 228 711 110 711 q 327 685 296 711 q 358 601 358 658 q 353 519 358 565 q 360 408 347 474 l 388 260 q 397 231 392 239 q 411 222 401 222 q 424 230 419 222 q 431 260 428 238 l 454 407 q 456 461 460 440 q 444 499 451 482 q 431 536 438 517 q 424 586 424 556 q 464 682 424 653 q 592 711 504 711 q 701 685 671 711 q 731 589 731 658 q 734 522 731 561 q 749 421 738 483 l 775 260 q 799 222 781 222 q 821 260 817 222 l 840 418 q 838 467 844 447 q 822 503 831 486 q 804 539 813 521 q 796 582 796 557 q 830 678 796 647 q 938 708 864 708 l 972 708 q 1079 680 1047 708 q 1111 582 1111 651 q 1102 537 1111 556 q 1080 500 1093 518 q 1053 459 1067 482 q 1029 401 1039 436 l 953 121 q 788 0 919 0 l 739 0 q 664 17 693 0 q 617 60 635 35 q 592 117 600 86 q 579 173 583 147 q 571 216 575 199 q 558 233 567 233 q 544 216 550 233 q 533 173 539 199 q 518 117 528 147 q 490 60 508 86 q 444 17 472 35 q 369 0 415 0 l 324 0 q 216 31 258 0 q 158 121 174 61 l 76 422 z "},"x":{"ha":775,"x_min":14,"x_max":761,"o":"m 629 300 q 683 256 658 267 q 724 238 707 244 q 751 220 742 231 q 761 178 761 210 q 706 47 761 97 q 561 -4 650 -4 q 473 17 504 -4 q 422 72 442 38 q 386 152 401 107 q 346 244 371 197 q 303 296 319 296 q 288 249 288 296 q 294 217 288 231 q 310 190 301 203 q 326 161 319 176 q 333 126 333 146 q 302 28 333 57 q 192 0 271 0 l 153 0 q 47 30 81 0 q 14 126 14 60 q 24 167 14 150 q 49 200 33 183 q 87 236 65 217 q 133 285 108 256 q 170 331 158 314 q 183 362 182 349 q 174 389 185 375 q 143 425 164 403 q 97 472 118 453 q 60 507 75 490 q 36 540 44 524 q 28 582 28 557 q 250 711 28 711 q 340 686 308 711 q 371 613 371 661 q 385 554 371 585 q 438 468 399 524 q 455 447 447 456 q 469 439 463 439 q 481 468 481 439 q 474 496 481 483 q 461 521 468 508 q 448 548 454 533 q 442 582 442 563 q 474 678 442 647 q 581 708 507 708 l 608 708 q 715 680 683 708 q 747 582 747 651 q 738 542 747 558 q 712 508 728 525 q 674 472 696 492 q 628 422 653 451 q 599 386 608 400 q 589 360 589 372 q 599 335 589 349 q 629 300 610 322 z "},"y":{"ha":785,"x_min":1,"x_max":783,"o":"m 83 404 q 58 460 72 438 q 31 500 43 482 q 10 537 18 518 q 1 582 1 556 q 56 680 1 649 q 228 711 110 711 q 327 685 296 711 q 358 601 358 658 q 356 565 358 585 q 353 524 354 546 q 354 475 351 501 q 367 418 357 449 l 418 260 q 432 230 425 238 q 450 222 439 222 q 467 231 461 222 q 478 260 474 239 l 507 410 q 505 463 514 442 q 482 501 496 483 q 456 538 468 519 q 444 582 444 556 q 478 678 444 647 q 586 708 513 708 l 644 708 q 751 680 719 708 q 783 582 783 651 q 775 539 783 557 q 756 503 767 521 q 731 466 744 486 q 707 414 718 446 l 586 46 q 530 -91 560 -35 q 465 -183 500 -147 q 385 -234 429 -218 q 285 -250 340 -250 q 123 -206 185 -250 q 61 -90 61 -161 q 95 -8 61 -37 q 188 21 129 21 q 238 15 217 21 q 278 0 260 8 q 310 -15 296 -8 q 342 -21 325 -21 q 379 14 379 -21 q 367 38 379 32 q 337 45 356 43 q 293 51 318 47 q 243 68 268 54 q 194 112 218 82 q 153 196 171 142 l 83 404 z "},"z":{"ha":689,"x_min":25,"x_max":664,"o":"m 650 586 q 627 514 650 547 q 565 428 604 481 q 510 356 540 393 q 453 287 479 319 q 409 228 426 254 q 392 188 392 201 q 422 167 392 167 q 456 177 443 167 q 480 202 469 188 q 499 235 490 217 q 520 267 508 253 q 549 292 532 282 q 593 303 567 303 q 641 284 626 303 q 656 225 656 265 q 660 165 656 194 q 664 107 664 136 q 623 27 664 56 q 504 0 582 -1 q 164 0 335 3 q 25 115 25 -1 q 28 151 25 135 q 40 183 31 167 q 65 221 49 200 q 108 272 82 242 q 253 435 200 376 q 307 522 307 493 q 272 542 307 542 q 213 525 232 542 q 180 488 193 508 q 152 451 167 468 q 107 435 138 435 q 46 467 67 435 q 25 560 25 499 q 61 673 25 636 q 176 708 97 710 q 511 708 344 706 q 617 679 583 710 q 650 586 650 649 z "}}}
